<svg xmlns="http://www.w3.org/2000/svg" viewBox="0 0 420 96" role="img" aria-label="Beyond Style UAE">
  <defs>
    <linearGradient id="lg" x1="0" y1="0" x2="1" y2="1">
      <stop offset="0" stop-color="#A6864B"/>
      <stop offset="0.55" stop-color="#C9A96E"/>
      <stop offset="1" stop-color="#E4CFA1"/>
    </linearGradient>
  </defs>
  <rect x="0" y="8" width="80" height="80" rx="18" fill="#0A0A0A"/>
  <path d="M25 22h20c8 0 14 5 14 12 0 4-2 7-5 9 4 2 7 6 7 11 0 8-6 14-15 14H25V22zm7 7v13h13c4 0 7-3 7-7s-3-6-7-6H32zm0 20v19h14c5 0 8-4 8-10s-4-9-8-9H32z" fill="url(#lg)"/>
  <text x="100" y="52" font-family="'Cormorant Garamond', Georgia, serif" font-size="30" font-weight="600" fill="#0A0A0A" letter-spacing="0.5">Beyond Style</text>
  <text x="100" y="76" font-family="Inter, system-ui, sans-serif" font-size="12" font-weight="500" fill="#A6864B" letter-spacing="4">UAE  ·  SOCIAL COMMERCE</text>
</svg>
